<svg width="46" height="46" viewBox="0 0 46 46" fill="none" xmlns="http://www.w3.org/2000/svg">
<g clip-path="url(#clip0_3_99)">
<path d="M29.7083 26.8333H28.1942L27.6575 26.3158C29.5358 24.1308 30.6667 21.2942 30.6667 18.2083C30.6667 11.3275 25.0892 5.75 18.2083 5.75C11.3275 5.75 5.75 11.3275 5.75 18.2083C5.75 25.0892 11.3275 30.6667 18.2083 30.6667C21.2942 30.6667 24.1308 29.5358 26.3158 27.6575L26.8333 28.1942V29.7083L36.4167 39.2725L39.2725 36.4167L29.7083 26.8333V26.8333ZM18.2083 26.8333C13.4358 26.8333 9.58333 22.9808 9.58333 18.2083C9.58333 13.4358 13.4358 9.58333 18.2083 9.58333C22.9808 9.58333 26.8333 13.4358 26.8333 18.2083C26.8333 22.9808 22.9808 26.8333 18.2083 26.8333Z" fill="black"/>
</g>
<defs>
<clipPath id="clip0_3_99">
<rect width="46" height="46" fill="white"/>
</clipPath>
</defs>
</svg>
