<?xml version="1.0" standalone="yes"?>
<svg xmlns="http://www.w3.org/2000/svg" width="50" height="50">
<path style="fill:#010101; stroke:none;" d="M0 0L0 50L50 50L50 0L0 0z"/>
<path style="fill:#c5c5c5; stroke:none;" d="M16 8L9 15C11.9342 13.712 16.904 11.7269 16 8z"/>
<path style="fill:#c9c9c9; stroke:none;" d="M17 8L20 10L20 9L17 8z"/>
<path style="fill:#c5c5c5; stroke:none;" d="M18 8L18 9L26 9C28.2852 12.4371 31.6186 14.7411 32.6852 19C34.8347 27.5831 27.2902 34.9105 18.831 32.7361C14.5963 31.6476 12.4792 28.19 9 26L11 16C5.04775 17.2755 8.25491 28.0483 11.6389 30.9722C18.4673 36.8723 22.9746 32.1874 30 34.1389C34.6535 35.4315 36.992 40.6954 42 42C40.4698 37.5348 36.1949 35.2028 34.6427 30.9606C33.3077 27.3119 35.3671 22.9328 34.8665 19.0895C33.6686 9.89294 25.6527 8.17916 18 8z"/>
<path style="fill:#c9c9c9; stroke:none;" d="M23 8L24 9L23 8M21 9L22 10L21 9M24.6667 9.33333L25.3333 9.66667L24.6667 9.33333z"/>
<path style="fill:#010101; stroke:none;" d="M17.0039 10.7423C3.107 16.1207 11.9649 37.6881 25.9961 32.2577C39.893 26.8793 31.0351 5.31187 17.0039 10.7423z"/>
<path style="fill:#ffffff; stroke:none;" d="M11 11L12 12L11 11z"/>
<path style="fill:#c9c9c9; stroke:none;" d="M14 11L15 12L14 11M28 11L29 12L28 11z"/>
<path style="fill:#ffffff; stroke:none;" d="M31 11L32 12L31 11z"/>
<path style="fill:#c9c9c9; stroke:none;" d="M13 12L14 13L13 12M29 12L30 13L29 12M12 13L13 14L12 13M30 13L31 14L30 13M32 13L33 14L32 13M11 14L12 15L11 14M33.3333 14.6667L33.6667 15.3333L33.3333 14.6667M9.66667 15.3333L10.3333 15.6667L9.66667 15.3333M9 18L9 22L10 22L9 18z"/>
<path style="fill:#b8b8b8; stroke:none;" d="M33 21L34 22L33 21z"/>
<path style="fill:#c9c9c9; stroke:none;" d="M33 22L34 23L33 22M8 23L9 24L8 23M9.33333 24.6667L9.66667 25.3333L9.33333 24.6667M32 26L33 27L32 26M34 26L35 27L34 26M12 29L13 30L12 29M30 29L29 31L31 31L30 29M11 30L12 31L11 30M13 30L14 31L13 30z"/>
<path style="fill:#ffffff; stroke:none;" d="M11 31L12 32L11 31z"/>
<path style="fill:#c9c9c9; stroke:none;" d="M14 31L15 32L14 31M13 32L14 33L13 32M26.6667 32.3333L27.3333 32.6667L26.6667 32.3333M14.6667 33.3333L15.3333 33.6667L14.6667 33.3333M21 33L22 34L21 33M35 33L36 34L35 33z"/>
<path style="fill:#b8b8b8; stroke:none;" d="M16 34L17 35L16 34z"/>
<path style="fill:#c9c9c9; stroke:none;" d="M26 34L27 35L26 34M36 34L37 35L36 34M41 39L42 40L41 39M39 41L40 42L39 41z"/>
</svg>
